PathFileType	4	(X/Y/Z)	c:/Users/goper/Files/vsCode/490R/osim_files/C12/C12_Fast_03.trc
DataRate	CameraRate	NumFrames	NumMarkers	Units                	OrigDataRate	OrigDataStartFrame	OrigNumFrames
120.00	120.00	6	36	mm	120.0	898	1196
                Frame#	Time	LPSIS			LASIS			LTH1			LTH2			LTH3			LTH4			LLFE			LMFE			LSH1			LSH2			LSH3			LSH4			LLMAL			LMMAL			LCAL			LMTP5			LTOE			LMTP1			RPSIS			RASIS			RTH1			RTH2			RTH3			RTH4			RLFE			RMFE			RSH1			RSH2			RSH3			RSH4			RLMAL			RMMAL			RCAL			RMTP1			RTOE			RMTP5		
		X1	Y1	Z1	X2	Y2	Z2	X3	Y3	Z3	X4	Y4	Z4	X5	Y5	Z5	X6	Y6	Z6	X7	Y7	Z7	X8	Y8	Z8	X9	Y9	Z9	X10	Y10	Z10	X11	Y11	Z11	X12	Y12	Z12	X13	Y13	Z13	X14	Y14	Z14	X15	Y15	Z15	X16	Y16	Z16	X17	Y17	Z17	X18	Y18	Z18	X19	Y19	Z19	X20	Y20	Z20	X21	Y21	Z21	X22	Y22	Z22	X23	Y23	Z23	X24	Y24	Z24	X25	Y25	Z25	X26	Y26	Z26	X27	Y27	Z27	X28	Y28	Z28	X29	Y29	Z29	X30	Y30	Z30	X31	Y31	Z31	X32	Y32	Z32	X33	Y33	Z33	X34	Y34	Z34	X35	Y35	Z35	X36	Y36	Z36

898	7.47500	-4153.76709	1025.46570	350.24149	-4345.11670	994.43719	385.32172	0.00000	0.00000	0.00000	0.00000	0.00000	0.00000	-4403.02051	740.18378	435.26001	0.00000	0.00000	0.00000	-4464.45361	530.83563	380.12326	0.00000	0.00000	0.00000	-4440.98438	421.10501	393.42993	-4460.00684	377.41068	400.48727	-4499.95947	440.30051	387.79865	-4509.72949	393.67538	392.31833	-4570.79395	108.66299	360.09445	-4584.49805	114.88881	280.97552	0.00000	0.00000	0.00000	0.00000	0.00000	0.00000	-4756.68311	125.96721	310.46652	0.00000	0.00000	0.00000	0.00000	0.00000	0.00000	-4316.22656	999.18158	127.66005	-4193.05371	722.96173	89.76357	-4175.03027	677.99048	97.12024	-4130.98584	741.35352	95.70906	0.00000	0.00000	0.00000	0.00000	0.00000	0.00000	-4094.81421	518.32019	267.89456	-3972.38940	470.93988	120.98477	-3950.58618	433.76953	115.37152	0.00000	0.00000	0.00000	-3990.93604	401.60583	120.83346	-3803.51294	179.32001	166.70090	-3831.58081	182.09721	246.82321	-3724.49951	179.34816	207.89243	0.00000	0.00000	0.00000	-3940.49707	66.05721	227.13332	-3902.27612	45.17980	151.89186
899	7.48333	-4167.83008	1026.40283	351.23441	-4358.86426	995.19916	386.00644	-4364.74756	721.32745	442.44440	0.00000	0.00000	0.00000	-4416.92480	741.90637	434.81812	0.00000	0.00000	0.00000	-4478.46533	533.50696	381.36624	0.00000	0.00000	0.00000	-4455.58105	424.72809	394.71036	-4473.76172	380.57898	401.91531	-4514.71338	442.31927	387.41434	-4523.43115	395.48209	392.28683	-4574.57910	108.38129	360.60641	-4587.29883	114.08161	282.00961	0.00000	0.00000	0.00000	-4719.72754	75.77707	377.76257	-4761.22266	118.36217	311.52600	0.00000	0.00000	0.00000	0.00000	0.00000	0.00000	-4331.35449	999.14215	128.56161	-4209.58398	722.39679	90.55524	-4191.82227	677.36121	97.56313	-4147.44336	740.53705	96.47890	0.00000	0.00000	0.00000	0.00000	0.00000	0.00000	-4112.00781	516.13385	266.78598	-3988.34766	472.92319	120.06590	-3965.43408	436.45264	114.36171	0.00000	0.00000	0.00000	-4005.15527	402.69382	119.22428	-3811.84937	185.33727	164.63586	-3840.95605	186.72705	244.47086	-3733.83374	189.47348	206.94792	-3892.41968	66.55591	260.71677	-3942.62988	80.39727	219.75490	-3902.70459	45.14746	151.73941
900	7.49167	-4186.52002	1027.38464	352.91721	-4372.22900	996.44171	386.59152	-4378.03906	723.49408	442.77863	-4391.47461	677.37390	428.82205	-4430.33350	744.17151	434.65445	0.00000	0.00000	0.00000	-4493.71387	537.79333	381.46872	0.00000	0.00000	0.00000	-4470.95020	429.25888	398.43835	-4487.06494	384.01797	403.82166	-4529.05859	444.30402	387.44290	-4536.55273	397.24655	392.58969	-4577.57617	108.47575	361.12982	-4587.87939	113.89694	280.97540	0.00000	0.00000	0.00000	-4721.64160	70.54024	378.59064	-4764.69775	112.08011	312.97571	0.00000	0.00000	0.00000	0.00000	0.00000	0.00000	-4346.20264	999.60547	129.52550	-4225.54443	720.64062	91.05761	-4209.39502	676.77698	97.91573	-4164.46533	739.79828	96.87930	0.00000	0.00000	0.00000	0.00000	0.00000	0.00000	-4130.52539	514.66681	265.30099	-4005.20312	475.11008	118.98566	-3981.22388	439.18915	113.36761	0.00000	0.00000	0.00000	-4020.32129	403.98517	117.29501	-3821.35962	191.56252	162.47188	-3851.56958	191.38080	241.80435	-3745.11304	200.29105	205.92307	0.00000	0.00000	0.00000	0.00000	0.00000	0.00000	-3904.88354	46.00505	153.05553
901	7.50000	-4200.09961	1029.59338	353.39948	-4385.38037	998.29572	387.20953	-4391.17969	726.09448	443.42020	0.00000	0.00000	0.00000	-4443.42871	747.07709	434.85202	0.00000	0.00000	0.00000	-4509.41504	542.37836	380.96609	0.00000	0.00000	0.00000	-4484.11865	432.27277	399.84778	-4499.41943	386.66476	406.36887	-4542.80811	446.25562	388.01492	-4549.00488	399.00565	393.37134	-4580.07129	108.75630	361.69391	-4590.49463	112.65744	279.84311	-4517.53857	88.24855	331.34274	0.00000	0.00000	0.00000	-4767.24854	106.89571	313.56738	0.00000	0.00000	0.00000	0.00000	0.00000	0.00000	-4360.69434	1000.52240	130.75665	-4244.28857	721.29614	91.42377	-4227.69141	676.34338	98.10524	-4182.26465	738.95312	97.11564	0.00000	0.00000	0.00000	0.00000	0.00000	0.00000	-4150.08887	513.09906	263.48740	-4023.11230	477.35062	118.01882	-3998.14355	442.13644	112.06510	0.00000	0.00000	0.00000	-4038.69019	407.43298	113.83267	-3832.63867	197.85469	160.16342	-3863.77246	196.06216	239.23120	-3758.11938	211.78960	204.67216	-3896.98901	67.84937	260.72537	-3935.75024	57.43221	218.73746	-3905.67944	46.27922	153.00861
902	7.50833	-4213.58984	1032.14380	353.85916	-4398.39014	1000.71716	387.89597	0.00000	0.00000	0.00000	0.00000	0.00000	0.00000	-4456.46484	750.64160	435.44543	0.00000	0.00000	0.00000	-4525.18359	546.36053	380.27594	0.00000	0.00000	0.00000	-4496.96338	435.85208	401.88388	-4515.59424	394.68271	412.10413	-4555.63428	448.09027	388.83093	-4560.51074	400.64413	394.39200	-4582.33301	109.10649	362.02902	-4592.24658	114.06474	281.80078	-4519.27637	88.99474	331.59125	0.00000	0.00000	0.00000	-4769.34131	102.58783	313.56171	0.00000	0.00000	0.00000	0.00000	0.00000	0.00000	-4374.84375	1002.04053	132.29352	-4262.14941	720.65741	91.62907	-4246.60400	675.98224	98.06072	-4200.38916	738.02704	96.82104	0.00000	0.00000	0.00000	0.00000	0.00000	0.00000	-4170.59766	511.16919	261.16141	-4042.33813	479.57513	116.66529	-4016.36743	445.18271	110.56091	0.00000	0.00000	0.00000	-4056.16016	409.23654	111.24873	-3845.69922	204.11055	158.22908	-3877.09302	201.28688	236.85738	-3772.95874	223.91312	203.22275	-3900.42090	69.94589	260.45038	0.00000	0.00000	0.00000	-3906.89526	47.27972	153.11234
903	7.51667	-4225.72168	1034.51294	352.85312	-4411.43604	1003.75208	388.61597	0.00000	0.00000	0.00000	-4431.88916	687.07019	431.80258	-4469.54883	754.52344	436.17102	0.00000	0.00000	0.00000	-4540.48486	549.71716	379.62805	0.00000	0.00000	0.00000	-4508.78711	439.11066	403.86465	-4525.42822	396.61905	413.70602	-4567.42627	449.70010	389.78381	-4571.13184	402.10455	395.58075	-4584.39746	109.42867	362.38141	-4594.53711	114.31480	282.25626	-4520.79492	89.69286	331.74338	0.00000	0.00000	0.00000	-4771.27832	98.74898	313.56076	0.00000	0.00000	0.00000	0.00000	0.00000	0.00000	-4388.52588	1003.83246	133.88828	-4280.40088	720.07446	91.62699	-4266.03125	675.68188	97.83533	-4218.90332	737.29193	96.38771	0.00000	0.00000	0.00000	0.00000	0.00000	0.00000	-4192.72070	509.82797	258.70416	-4062.40674	481.55524	115.33253	-4035.04517	448.21002	109.56698	0.00000	0.00000	0.00000	-4074.60352	410.92148	108.26164	-3859.84595	210.98370	156.24461	-3891.33569	206.70813	234.90698	-3789.17358	236.92435	201.29214	-3904.41211	73.34601	260.05249	-3947.46143	68.45232	225.55809	-3909.12085	49.73232	152.98573
